<svg width="623" height="871" viewBox="0 0 623 871" fill="none" xmlns="http://www.w3.org/2000/svg">
<path opacity="0.65" fill-rule="evenodd" clip-rule="evenodd" d="M0.324219 871.032V166.022L3.88679 164.691V146.116L59.0396 128.493V112.391L224.878 59.2666L233.88 74.7347L352.173 36.9519L359.38 55.4232L536.374 0.753128L547.536 63.32L574.567 55.7269L585.308 123.331V174.681L592.047 172.841L594.089 191.952H595.548L618.738 360.388V531.457L618.761 530.914L620.85 531.392L621.985 535.511V543.868H618.738V566.671H621.03L621.447 577.893H618.738V602.038C619.436 602.137 620.266 602.243 620.791 602.308L621.865 612.814L618.738 613.745V637.567L621.149 637.228L622.104 647.853L618.738 648.033V668.254C619.167 668.305 619.588 668.353 619.895 668.388V676.805H618.738V871.318L0.324219 871.032Z" fill="#701F64"/>
</svg>
