<?xml version="1.0" encoding="UTF-8" standalone="no"?><!DOCTYPE svg PUBLIC "-//W3C//DTD SVG 1.1//EN" "http://www.w3.org/Graphics/SVG/1.1/DTD/svg11.dtd"><svg width="100%" height="100%" viewBox="0 0 64 65" version="1.1" xmlns="http://www.w3.org/2000/svg" xmlns:xlink="http://www.w3.org/1999/xlink" xml:space="preserve" xmlns:serif="http://www.serif.com/" style="fill-rule:evenodd;clip-rule:evenodd;stroke-linejoin:round;stroke-miterlimit:1.41421;"><g><g><path d="M47.481,31.239c-1.796,-2.285 -4.122,-4.175 -6.727,-5.466c-2.659,-1.317 -5.52,-2.001 -8.507,-2.037c-0.082,-0.002 -0.412,-0.002 -0.494,0c-2.987,0.036 -5.848,0.72 -8.507,2.037c-2.605,1.291 -4.931,3.181 -6.727,5.466c-0.692,0.881 -0.692,2.11 0,2.991c1.796,2.285 4.122,4.175 6.727,5.466c2.659,1.317 5.52,2.001 8.507,2.037c0.082,0.002 0.412,0.002 0.494,0c2.987,-0.036 5.848,-0.72 8.507,-2.037c2.605,-1.291 4.931,-3.181 6.727,-5.466c0.692,-0.881 0.692,-2.11 0,-2.991Zm-23.653,7.301c-2.433,-1.205 -4.605,-2.97 -6.283,-5.105c-0.324,-0.412 -0.324,-0.988 0,-1.401c1.678,-2.134 3.85,-3.9 6.283,-5.105c0.691,-0.342 1.396,-0.638 2.115,-0.889c-1.849,1.649 -3.014,4.039 -3.014,6.695c0,2.655 1.165,5.045 3.014,6.694c-0.719,-0.251 -1.424,-0.547 -2.115,-0.889Zm8.172,1.904c-4.284,0 -7.769,-3.458 -7.769,-7.71c0,-4.251 3.485,-7.709 7.769,-7.709c4.284,0 7.769,3.458 7.769,7.71c0,4.251 -3.485,7.709 -7.769,7.709Zm14.455,-7.009c-1.678,2.134 -3.85,3.9 -6.283,5.105c-0.69,0.342 -1.395,0.636 -2.112,0.887c1.847,-1.649 3.011,-4.038 3.011,-6.693c0,-2.655 -1.165,-5.045 -3.014,-6.694c0.719,0.25 1.424,0.547 2.115,0.889c2.433,1.205 4.605,2.971 6.283,5.105c0.324,0.412 0.324,0.989 0,1.401Z" style="fill:#fff;fill-rule:nonzero;"/><path d="M32,29.435c-1.833,0 -3.325,1.48 -3.325,3.299c0,1.82 1.492,3.3 3.325,3.3c1.833,0 3.325,-1.48 3.325,-3.3c0,-1.819 -1.492,-3.299 -3.325,-3.299Zm0,5.307c-1.115,0 -2.023,-0.9 -2.023,-2.008c0,-1.107 0.907,-2.007 2.023,-2.007c1.115,0 2.023,0.9 2.023,2.007c0,1.108 -0.908,2.008 -2.023,2.008Z" style="fill:#fff;fill-rule:nonzero;"/></g><path d="M32.207,0.735l0.206,0.002l0.207,0.003l0.205,0.005l0.206,0.006l0.205,0.007l0.205,0.009l0.205,0.009l0.204,0.011l0.204,0.013l0.203,0.013l0.204,0.015l0.202,0.016l0.203,0.017l0.202,0.019l0.202,0.02l0.201,0.021l0.201,0.022l0.201,0.024l0.2,0.025l0.2,0.026l0.2,0.027l0.199,0.029l0.199,0.03l0.198,0.031l0.198,0.032l0.197,0.033l0.197,0.035l0.197,0.036l0.196,0.037l0.196,0.038l0.196,0.039l0.195,0.041l0.194,0.042l0.194,0.042l0.194,0.045l0.193,0.045l0.193,0.046l0.192,0.048l0.192,0.049l0.192,0.05l0.191,0.051l0.19,0.052l0.19,0.053l0.19,0.055l0.189,0.056l0.188,0.056l0.188,0.058l0.188,0.059l0.187,0.06l0.187,0.062l0.186,0.062l0.185,0.064l0.185,0.064l0.185,0.066l0.184,0.067l0.183,0.068l0.183,0.069l0.183,0.07l0.182,0.071l0.181,0.072l0.181,0.073l0.18,0.075l0.18,0.075l0.179,0.076l0.179,0.078l0.178,0.079l0.177,0.079l0.177,0.081l0.176,0.082l0.176,0.082l0.175,0.084l0.175,0.085l0.174,0.086l0.173,0.087l0.173,0.088l0.172,0.088l0.172,0.09l0.171,0.091l0.17,0.092l0.17,0.093l0.169,0.094l0.168,0.095l0.168,0.096l0.167,0.097l0.167,0.097l0.166,0.099l0.165,0.1l0.165,0.101l0.163,0.102l0.164,0.102l0.162,0.104l0.162,0.104l0.162,0.106l0.16,0.106l0.16,0.108l0.16,0.108l0.158,0.109l0.158,0.111l0.157,0.111l0.157,0.112l0.156,0.113l0.155,0.114l0.154,0.114l0.154,0.116l0.153,0.117l0.152,0.117l0.151,0.118l0.151,0.12l0.15,0.12l0.149,0.121l0.149,0.122l0.148,0.122l0.147,0.124l0.146,0.125l0.146,0.125l0.145,0.126l0.144,0.127l0.143,0.128l0.142,0.129l0.142,0.129l0.141,0.131l0.14,0.131l0.14,0.132l0.138,0.133l0.138,0.134l0.137,0.134l0.136,0.136l0.135,0.136l0.135,0.137l0.134,0.137l0.133,0.139l0.132,0.139l0.131,0.141l0.13,0.14l0.13,0.142l0.129,0.143l0.127,0.143l0.128,0.144l0.126,0.145l0.125,0.145l0.125,0.147l0.123,0.147l0.123,0.148l0.122,0.148l0.121,0.149l0.12,0.15l0.119,0.151l0.119,0.152l0.117,0.152l0.117,0.153l0.115,0.154l0.115,0.154l0.114,0.155l0.113,0.156l0.112,0.156l0.111,0.158l0.11,0.157l0.109,0.159l0.109,0.159l0.107,0.16l0.107,0.161l0.105,0.161l0.105,0.162l0.103,0.163l0.103,0.163l0.102,0.164l0.101,0.165l0.099,0.165l0.099,0.166l0.098,0.166l0.097,0.168l0.096,0.167l0.095,0.169l0.093,0.169l0.093,0.17l0.092,0.17l0.091,0.171l0.09,0.172l0.089,0.172l0.088,0.173l0.087,0.173l0.086,0.174l0.084,0.174l0.084,0.176l0.083,0.175l0.082,0.177l0.08,0.176l0.08,0.178l0.079,0.178l0.077,0.179l0.077,0.179l0.075,0.179l0.074,0.181l0.074,0.181l0.072,0.181l0.071,0.182l0.07,0.182l0.069,0.183l0.068,0.184l0.067,0.184l0.065,0.184l0.065,0.185l0.063,0.186l0.063,0.186l0.061,0.186l0.06,0.188l0.059,0.187l0.058,0.188l0.057,0.189l0.056,0.189l0.054,0.189l0.054,0.19l0.052,0.191l0.051,0.191l0.05,0.191l0.049,0.192l0.047,0.192l0.047,0.193l0.045,0.193l0.044,0.194l0.043,0.194l0.042,0.195l0.04,0.195l0.04,0.195l0.038,0.196l0.037,0.196l0.036,0.197l0.034,0.197l0.034,0.198l0.032,0.198l0.031,0.198l0.03,0.199l0.028,0.199l0.028,0.199l0.026,0.2l0.025,0.201l0.023,0.2l0.023,0.201l0.021,0.202l0.02,0.201l0.018,0.203l0.018,0.202l0.016,0.203l0.014,0.203l0.014,0.204l0.012,0.204l0.011,0.204l0.01,0.204l0.009,0.205l0.007,0.206l0.006,0.205l0.004,0.206l0.003,0.206l0.002,0.207l0.001,0.207l-0.001,0.206l-0.002,0.207l-0.003,0.206l-0.004,0.206l-0.006,0.206l-0.007,0.205l-0.009,0.205l-0.01,0.204l-0.011,0.204l-0.012,0.204l-0.014,0.204l-0.014,0.203l-0.016,0.203l-0.018,0.203l-0.018,0.202l-0.02,0.201l-0.021,0.202l-0.023,0.201l-0.023,0.201l-0.025,0.2l-0.026,0.2l-0.028,0.199l-0.028,0.199l-0.03,0.199l-0.031,0.198l-0.032,0.198l-0.034,0.198l-0.034,0.197l-0.036,0.197l-0.037,0.196l-0.038,0.196l-0.04,0.195l-0.04,0.195l-0.042,0.195l-0.043,0.194l-0.044,0.194l-0.045,0.193l-0.047,0.193l-0.047,0.192l-0.049,0.192l-0.05,0.191l-0.051,0.191l-0.052,0.191l-0.054,0.19l-0.054,0.189l-0.056,0.189l-0.057,0.189l-0.058,0.188l-0.059,0.188l-0.06,0.187l-0.061,0.186l-0.063,0.186l-0.063,0.186l-0.065,0.185l-0.065,0.184l-0.067,0.185l-0.068,0.183l-0.069,0.183l-0.07,0.182l-0.071,0.182l-0.072,0.182l-0.074,0.18l-0.074,0.181l-0.075,0.179l-0.077,0.18l-0.077,0.178l-0.079,0.178l-0.08,0.178l-0.08,0.177l-0.082,0.176l-0.083,0.176l-0.084,0.175l-0.084,0.174l-0.086,0.174l-0.087,0.174l-0.088,0.172l-0.089,0.173l-0.09,0.171l-0.091,0.171l-0.092,0.17l-0.093,0.17l-0.093,0.169l-0.095,0.169l-0.096,0.168l-0.097,0.167l-0.098,0.166l-0.099,0.166l-0.099,0.165l-0.101,0.165l-0.102,0.164l-0.103,0.163l-0.103,0.163l-0.105,0.162l-0.105,0.161l-0.107,0.161l-0.107,0.16l-0.109,0.159l-0.109,0.159l-0.11,0.158l-0.111,0.157l-0.112,0.156l-0.113,0.156l-0.114,0.155l-0.115,0.155l-0.115,0.153l-0.117,0.153l-0.117,0.152l-0.119,0.152l-0.119,0.151l-0.12,0.15l-0.121,0.149l-0.122,0.149l-0.123,0.147l-0.123,0.148l-0.125,0.146l-0.125,0.145l-0.126,0.145l-0.128,0.144l-0.127,0.143l-0.129,0.143l-0.13,0.142l-0.13,0.141l-0.131,0.14l-0.132,0.139l-0.133,0.139l-0.134,0.137l-0.135,0.137l-0.135,0.137l-0.136,0.135l-0.137,0.134l-0.138,0.134l-0.138,0.133l-0.14,0.132l-0.14,0.131l-0.141,0.131l-0.142,0.129l-0.142,0.129l-0.143,0.128l-0.144,0.127l-0.145,0.126l-0.146,0.126l-0.146,0.124l-0.147,0.124l-0.148,0.123l-0.149,0.121l-0.149,0.121l-0.15,0.121l-0.151,0.119l-0.151,0.118l-0.152,0.118l-0.153,0.116l-0.154,0.116l-0.154,0.115l-0.155,0.113l-0.156,0.113l-0.157,0.112l-0.157,0.112l-0.158,0.11l-0.158,0.109l-0.16,0.108l-0.16,0.108l-0.16,0.106l-0.162,0.106l-0.162,0.104l-0.162,0.104l-0.164,0.103l-0.163,0.101l-0.165,0.101l-0.165,0.1l-0.166,0.099l-0.167,0.098l-0.167,0.096l-0.168,0.096l-0.168,0.095l-0.169,0.094l-0.17,0.093l-0.17,0.092l-0.171,0.091l-0.172,0.09l-0.172,0.089l-0.173,0.087l-0.173,0.087l-0.174,0.086l-0.175,0.085l-0.175,0.084l-0.176,0.083l-0.176,0.081l-0.177,0.081l-0.177,0.08l-0.178,0.078l-0.179,0.078l-0.179,0.076l-0.18,0.076l-0.18,0.074l-0.181,0.073l-0.181,0.072l-0.182,0.072l-0.183,0.07l-0.183,0.069l-0.183,0.068l-0.184,0.066l-0.185,0.066l-0.185,0.065l-0.185,0.063l-0.186,0.062l-0.187,0.062l-0.187,0.06l-0.188,0.059l-0.188,0.058l-0.188,0.057l-0.189,0.055l-0.19,0.055l-0.19,0.053l-0.19,0.052l-0.191,0.051l-0.192,0.05l-0.192,0.049l-0.192,0.048l-0.193,0.046l-0.193,0.046l-0.194,0.044l-0.194,0.043l-0.194,0.041l-0.195,0.041l-0.196,0.039l-0.196,0.039l-0.196,0.037l-0.197,0.035l-0.197,0.035l-0.197,0.033l-0.198,0.033l-0.198,0.031l-0.199,0.029l-0.199,0.029l-0.2,0.027l-0.2,0.026l-0.2,0.025l-0.201,0.024l-0.201,0.022l-0.201,0.021l-0.202,0.02l-0.202,0.019l-0.203,0.017l-0.202,0.016l-0.204,0.015l-0.203,0.014l-0.204,0.012l-0.204,0.011l-0.205,0.01l-0.205,0.008l-0.205,0.007l-0.206,0.006l-0.205,0.005l-0.207,0.003l-0.206,0.002l-0.207,0.001l-0.207,-0.001l-0.206,-0.002l-0.207,-0.003l-0.205,-0.005l-0.206,-0.006l-0.205,-0.007l-0.205,-0.008l-0.205,-0.01l-0.204,-0.011l-0.204,-0.012l-0.203,-0.014l-0.204,-0.015l-0.202,-0.016l-0.203,-0.017l-0.202,-0.019l-0.202,-0.02l-0.201,-0.021l-0.201,-0.022l-0.201,-0.024l-0.2,-0.025l-0.2,-0.026l-0.2,-0.027l-0.199,-0.029l-0.199,-0.029l-0.198,-0.031l-0.198,-0.033l-0.197,-0.033l-0.197,-0.035l-0.197,-0.035l-0.196,-0.037l-0.196,-0.039l-0.196,-0.039l-0.195,-0.041l-0.194,-0.041l-0.194,-0.043l-0.194,-0.044l-0.193,-0.046l-0.193,-0.046l-0.192,-0.048l-0.192,-0.049l-0.192,-0.05l-0.191,-0.051l-0.19,-0.052l-0.19,-0.053l-0.19,-0.055l-0.189,-0.055l-0.188,-0.057l-0.188,-0.058l-0.188,-0.059l-0.187,-0.06l-0.187,-0.062l-0.186,-0.062l-0.185,-0.063l-0.185,-0.065l-0.185,-0.066l-0.184,-0.066l-0.183,-0.068l-0.183,-0.069l-0.183,-0.07l-0.182,-0.072l-0.181,-0.072l-0.181,-0.073l-0.18,-0.074l-0.18,-0.076l-0.179,-0.076l-0.179,-0.078l-0.178,-0.078l-0.177,-0.08l-0.177,-0.081l-0.176,-0.081l-0.176,-0.083l-0.175,-0.084l-0.175,-0.085l-0.174,-0.086l-0.173,-0.087l-0.173,-0.087l-0.172,-0.089l-0.172,-0.09l-0.171,-0.091l-0.17,-0.092l-0.17,-0.093l-0.169,-0.094l-0.168,-0.095l-0.168,-0.096l-0.167,-0.096l-0.167,-0.098l-0.166,-0.099l-0.165,-0.1l-0.165,-0.101l-0.163,-0.101l-0.164,-0.103l-0.162,-0.104l-0.162,-0.104l-0.162,-0.106l-0.16,-0.106l-0.16,-0.108l-0.16,-0.108l-0.158,-0.109l-0.158,-0.11l-0.157,-0.112l-0.157,-0.112l-0.156,-0.113l-0.155,-0.113l-0.154,-0.115l-0.154,-0.116l-0.153,-0.116l-0.152,-0.118l-0.151,-0.118l-0.151,-0.119l-0.15,-0.121l-0.149,-0.121l-0.149,-0.121l-0.148,-0.123l-0.147,-0.124l-0.146,-0.124l-0.146,-0.126l-0.145,-0.126l-0.144,-0.127l-0.143,-0.128l-0.142,-0.129l-0.142,-0.129l-0.141,-0.131l-0.14,-0.131l-0.14,-0.132l-0.138,-0.133l-0.138,-0.134l-0.137,-0.134l-0.136,-0.135l-0.135,-0.137l-0.135,-0.137l-0.134,-0.137l-0.133,-0.139l-0.132,-0.139l-0.131,-0.14l-0.13,-0.141l-0.13,-0.142l-0.129,-0.143l-0.127,-0.143l-0.128,-0.144l-0.126,-0.145l-0.125,-0.145l-0.125,-0.146l-0.123,-0.148l-0.123,-0.147l-0.122,-0.149l-0.121,-0.149l-0.12,-0.15l-0.119,-0.151l-0.119,-0.152l-0.117,-0.152l-0.117,-0.153l-0.115,-0.153l-0.115,-0.155l-0.114,-0.155l-0.113,-0.156l-0.112,-0.156l-0.111,-0.157l-0.11,-0.158l-0.109,-0.159l-0.109,-0.159l-0.107,-0.16l-0.107,-0.161l-0.105,-0.161l-0.105,-0.162l-0.103,-0.163l-0.103,-0.163l-0.102,-0.164l-0.101,-0.165l-0.099,-0.165l-0.099,-0.166l-0.098,-0.166l-0.097,-0.167l-0.096,-0.168l-0.095,-0.169l-0.093,-0.169l-0.093,-0.17l-0.092,-0.17l-0.091,-0.171l-0.09,-0.171l-0.089,-0.173l-0.088,-0.172l-0.087,-0.174l-0.086,-0.174l-0.084,-0.174l-0.084,-0.175l-0.083,-0.176l-0.082,-0.176l-0.08,-0.177l-0.08,-0.178l-0.079,-0.178l-0.077,-0.178l-0.077,-0.18l-0.075,-0.179l-0.074,-0.181l-0.074,-0.18l-0.072,-0.182l-0.071,-0.182l-0.07,-0.182l-0.069,-0.183l-0.068,-0.183l-0.067,-0.185l-0.065,-0.184l-0.065,-0.185l-0.063,-0.186l-0.063,-0.186l-0.061,-0.186l-0.06,-0.187l-0.059,-0.188l-0.058,-0.188l-0.057,-0.189l-0.056,-0.189l-0.054,-0.189l-0.054,-0.19l-0.052,-0.191l-0.051,-0.191l-0.05,-0.191l-0.049,-0.192l-0.047,-0.192l-0.047,-0.193l-0.045,-0.193l-0.044,-0.194l-0.043,-0.194l-0.042,-0.195l-0.04,-0.195l-0.04,-0.195l-0.038,-0.196l-0.037,-0.196l-0.036,-0.197l-0.034,-0.197l-0.034,-0.198l-0.032,-0.198l-0.031,-0.198l-0.03,-0.199l-0.028,-0.199l-0.028,-0.199l-0.026,-0.2l-0.025,-0.2l-0.023,-0.201l-0.023,-0.201l-0.021,-0.202l-0.02,-0.201l-0.018,-0.202l-0.018,-0.203l-0.016,-0.203l-0.014,-0.203l-0.014,-0.204l-0.012,-0.204l-0.011,-0.204l-0.01,-0.204l-0.009,-0.205l-0.007,-0.205l-0.006,-0.206l-0.004,-0.206l-0.003,-0.206l-0.002,-0.207l-0.001,-0.206l0.001,-0.207l0.002,-0.207l0.003,-0.206l0.004,-0.206l0.006,-0.205l0.007,-0.206l0.009,-0.205l0.01,-0.204l0.011,-0.204l0.012,-0.204l0.014,-0.204l0.014,-0.203l0.016,-0.203l0.018,-0.202l0.018,-0.203l0.02,-0.201l0.021,-0.202l0.023,-0.201l0.023,-0.2l0.025,-0.201l0.026,-0.2l0.028,-0.199l0.028,-0.199l0.03,-0.199l0.031,-0.198l0.032,-0.198l0.034,-0.198l0.034,-0.197l0.036,-0.197l0.037,-0.196l0.038,-0.196l0.04,-0.195l0.04,-0.195l0.042,-0.195l0.043,-0.194l0.044,-0.194l0.045,-0.193l0.047,-0.193l0.047,-0.192l0.049,-0.192l0.05,-0.191l0.051,-0.191l0.052,-0.191l0.054,-0.19l0.054,-0.189l0.056,-0.189l0.057,-0.189l0.058,-0.188l0.059,-0.187l0.06,-0.188l0.061,-0.186l0.063,-0.186l0.063,-0.186l0.065,-0.185l0.065,-0.184l0.067,-0.184l0.068,-0.184l0.069,-0.183l0.07,-0.182l0.071,-0.182l0.072,-0.181l0.074,-0.181l0.074,-0.181l0.075,-0.179l0.077,-0.179l0.077,-0.179l0.079,-0.178l0.08,-0.178l0.08,-0.176l0.082,-0.177l0.083,-0.175l0.084,-0.176l0.084,-0.174l0.086,-0.174l0.087,-0.173l0.088,-0.173l0.089,-0.172l0.09,-0.172l0.091,-0.171l0.092,-0.17l0.093,-0.17l0.093,-0.169l0.095,-0.169l0.096,-0.167l0.097,-0.168l0.098,-0.166l0.099,-0.166l0.099,-0.165l0.101,-0.165l0.102,-0.164l0.103,-0.163l0.103,-0.163l0.105,-0.162l0.105,-0.161l0.107,-0.161l0.107,-0.16l0.109,-0.159l0.109,-0.159l0.11,-0.157l0.111,-0.158l0.112,-0.156l0.113,-0.156l0.114,-0.155l0.115,-0.154l0.115,-0.154l0.117,-0.153l0.117,-0.152l0.119,-0.152l0.119,-0.151l0.12,-0.15l0.121,-0.149l0.122,-0.148l0.123,-0.148l0.123,-0.147l0.125,-0.147l0.125,-0.145l0.126,-0.145l0.128,-0.144l0.127,-0.143l0.129,-0.143l0.13,-0.142l0.13,-0.14l0.131,-0.141l0.132,-0.139l0.133,-0.139l0.134,-0.137l0.135,-0.137l0.135,-0.136l0.136,-0.136l0.137,-0.134l0.138,-0.134l0.138,-0.133l0.14,-0.132l0.14,-0.131l0.141,-0.131l0.142,-0.129l0.142,-0.129l0.143,-0.128l0.144,-0.127l0.145,-0.126l0.146,-0.125l0.146,-0.125l0.147,-0.124l0.148,-0.122l0.149,-0.122l0.149,-0.121l0.15,-0.12l0.151,-0.12l0.151,-0.118l0.152,-0.117l0.153,-0.117l0.154,-0.116l0.154,-0.114l0.155,-0.114l0.156,-0.113l0.157,-0.112l0.157,-0.111l0.158,-0.111l0.158,-0.109l0.16,-0.108l0.16,-0.108l0.16,-0.106l0.162,-0.106l0.162,-0.104l0.162,-0.104l0.164,-0.102l0.163,-0.102l0.165,-0.101l0.165,-0.1l0.166,-0.099l0.167,-0.097l0.167,-0.097l0.168,-0.096l0.168,-0.095l0.169,-0.094l0.17,-0.093l0.17,-0.092l0.171,-0.091l0.172,-0.09l0.172,-0.088l0.173,-0.088l0.173,-0.087l0.174,-0.086l0.175,-0.085l0.175,-0.084l0.176,-0.082l0.176,-0.082l0.177,-0.081l0.177,-0.079l0.178,-0.079l0.179,-0.078l0.179,-0.076l0.18,-0.075l0.18,-0.075l0.181,-0.073l0.181,-0.072l0.182,-0.071l0.183,-0.07l0.183,-0.069l0.183,-0.068l0.184,-0.067l0.185,-0.066l0.185,-0.064l0.185,-0.064l0.186,-0.062l0.187,-0.062l0.187,-0.06l0.188,-0.059l0.188,-0.058l0.188,-0.056l0.189,-0.056l0.19,-0.055l0.19,-0.053l0.19,-0.052l0.191,-0.051l0.192,-0.05l0.192,-0.049l0.192,-0.048l0.193,-0.046l0.193,-0.045l0.194,-0.045l0.194,-0.042l0.194,-0.042l0.195,-0.041l0.196,-0.039l0.196,-0.038l0.196,-0.037l0.197,-0.036l0.197,-0.035l0.197,-0.033l0.198,-0.032l0.198,-0.031l0.199,-0.03l0.199,-0.029l0.2,-0.027l0.2,-0.026l0.2,-0.025l0.201,-0.024l0.201,-0.022l0.201,-0.021l0.202,-0.02l0.202,-0.019l0.203,-0.017l0.202,-0.016l0.204,-0.015l0.203,-0.013l0.204,-0.013l0.204,-0.011l0.205,-0.009l0.205,-0.009l0.205,-0.007l0.206,-0.006l0.205,-0.005l0.207,-0.003l0.206,-0.002l0.207,0l0.207,0Zm-0.407,1l-0.201,0.002l-0.199,0.003l-0.2,0.005l-0.2,0.005l-0.198,0.007l-0.198,0.008l-0.199,0.01l-0.198,0.011l-0.197,0.012l-0.198,0.013l-0.197,0.014l-0.196,0.016l-0.196,0.017l-0.196,0.018l-0.195,0.019l-0.196,0.02l-0.195,0.022l-0.194,0.023l-0.194,0.024l-0.194,0.025l-0.193,0.026l-0.193,0.028l-0.193,0.029l-0.191,0.03l-0.192,0.031l-0.192,0.032l-0.19,0.034l-0.191,0.035l-0.19,0.036l-0.19,0.037l-0.189,0.038l-0.189,0.039l-0.188,0.041l-0.188,0.041l-0.188,0.043l-0.187,0.044l-0.187,0.045l-0.186,0.046l-0.186,0.047l-0.186,0.049l-0.185,0.049l-0.184,0.051l-0.184,0.051l-0.183,0.053l-0.183,0.054l-0.183,0.055l-0.183,0.056l-0.181,0.057l-0.181,0.059l-0.181,0.059l-0.181,0.061l-0.179,0.061l-0.179,0.062l-0.179,0.064l-0.178,0.064l-0.178,0.066l-0.177,0.067l-0.176,0.068l-0.176,0.069l-0.176,0.07l-0.176,0.071l-0.174,0.072l-0.174,0.073l-0.174,0.074l-0.173,0.075l-0.172,0.076l-0.172,0.077l-0.171,0.079l-0.171,0.079l-0.17,0.08l-0.17,0.081l-0.169,0.082l-0.168,0.083l-0.168,0.084l-0.168,0.086l-0.166,0.086l-0.167,0.087l-0.165,0.088l-0.165,0.089l-0.165,0.09l-0.164,0.091l-0.163,0.092l-0.162,0.093l-0.162,0.093l-0.161,0.095l-0.162,0.096l-0.16,0.097l-0.159,0.097l-0.159,0.099l-0.158,0.099l-0.157,0.1l-0.158,0.102l-0.156,0.102l-0.155,0.103l-0.155,0.104l-0.155,0.105l-0.154,0.106l-0.152,0.107l-0.153,0.107l-0.151,0.109l-0.151,0.11l-0.151,0.11l-0.149,0.111l-0.149,0.112l-0.148,0.113l-0.148,0.114l-0.146,0.114l-0.146,0.116l-0.146,0.117l-0.145,0.117l-0.143,0.118l-0.144,0.119l-0.142,0.12l-0.142,0.12l-0.141,0.122l-0.14,0.122l-0.14,0.123l-0.139,0.124l-0.138,0.124l-0.137,0.126l-0.137,0.127l-0.135,0.126l-0.135,0.129l-0.135,0.129l-0.133,0.129l-0.133,0.131l-0.132,0.131l-0.131,0.131l-0.13,0.133l-0.13,0.134l-0.129,0.134l-0.128,0.136l-0.127,0.135l-0.126,0.136l-0.126,0.138l-0.125,0.138l-0.124,0.139l-0.123,0.139l-0.122,0.14l-0.121,0.141l-0.121,0.142l-0.12,0.143l-0.119,0.143l-0.118,0.144l-0.117,0.145l-0.117,0.145l-0.115,0.146l-0.115,0.147l-0.113,0.147l-0.113,0.149l-0.112,0.149l-0.112,0.149l-0.11,0.151l-0.11,0.151l-0.108,0.151l-0.108,0.152l-0.106,0.153l-0.106,0.154l-0.105,0.154l-0.104,0.156l-0.104,0.155l-0.102,0.156l-0.101,0.157l-0.1,0.158l-0.1,0.158l-0.098,0.158l-0.098,0.16l-0.097,0.16l-0.095,0.161l-0.095,0.161l-0.094,0.162l-0.093,0.163l-0.092,0.163l-0.091,0.164l-0.09,0.164l-0.089,0.165l-0.088,0.166l-0.087,0.166l-0.086,0.167l-0.085,0.167l-0.084,0.168l-0.084,0.169l-0.082,0.169l-0.081,0.169l-0.08,0.17l-0.079,0.171l-0.078,0.172l-0.077,0.171l-0.077,0.173l-0.075,0.173l-0.074,0.173l-0.073,0.175l-0.072,0.174l-0.071,0.175l-0.07,0.176l-0.069,0.176l-0.067,0.176l-0.067,0.178l-0.066,0.178l-0.065,0.178l-0.063,0.179l-0.063,0.179l-0.061,0.18l-0.061,0.18l-0.059,0.181l-0.058,0.181l-0.058,0.181l-0.056,0.183l-0.055,0.182l-0.054,0.183l-0.052,0.184l-0.052,0.184l-0.051,0.184l-0.049,0.185l-0.048,0.186l-0.048,0.185l-0.046,0.187l-0.045,0.187l-0.044,0.187l-0.042,0.187l-0.042,0.188l-0.04,0.189l-0.04,0.189l-0.038,0.189l-0.037,0.189l-0.036,0.19l-0.034,0.191l-0.034,0.191l-0.032,0.191l-0.031,0.192l-0.03,0.192l-0.029,0.193l-0.028,0.193l-0.026,0.193l-0.026,0.194l-0.024,0.193l-0.023,0.195l-0.021,0.195l-0.021,0.195l-0.019,0.195l-0.018,0.196l-0.017,0.196l-0.015,0.197l-0.015,0.197l-0.013,0.197l-0.012,0.198l-0.011,0.197l-0.009,0.199l-0.008,0.198l-0.007,0.199l-0.006,0.2l-0.004,0.199l-0.003,0.2l-0.002,0.2l-0.001,0.2l0.001,0.201l0.002,0.2l0.003,0.2l0.004,0.2l0.006,0.199l0.007,0.199l0.008,0.198l0.009,0.199l0.011,0.197l0.012,0.198l0.013,0.197l0.015,0.197l0.015,0.197l0.017,0.196l0.018,0.196l0.019,0.195l0.021,0.196l0.021,0.194l0.023,0.195l0.024,0.194l0.026,0.193l0.026,0.194l0.028,0.192l0.029,0.193l0.029,0.192l0.032,0.191l0.032,0.192l0.034,0.191l0.034,0.191l0.036,0.19l0.037,0.189l0.038,0.19l0.04,0.188l0.04,0.189l0.042,0.188l0.042,0.187l0.044,0.188l0.045,0.186l0.046,0.187l0.048,0.186l0.048,0.185l0.049,0.185l0.051,0.184l0.052,0.184l0.052,0.184l0.054,0.183l0.055,0.183l0.056,0.182l0.058,0.182l0.058,0.181l0.059,0.18l0.061,0.18l0.061,0.18l0.063,0.18l0.063,0.178l0.065,0.178l0.066,0.178l0.067,0.177l0.067,0.177l0.069,0.176l0.07,0.176l0.071,0.175l0.072,0.174l0.073,0.175l0.074,0.173l0.076,0.173l0.076,0.173l0.077,0.172l0.078,0.171l0.079,0.171l0.08,0.17l0.081,0.169l0.082,0.169l0.084,0.169l0.084,0.168l0.085,0.167l0.086,0.167l0.087,0.166l0.088,0.166l0.089,0.165l0.09,0.164l0.091,0.164l0.092,0.163l0.093,0.163l0.094,0.162l0.095,0.161l0.095,0.161l0.097,0.16l0.098,0.16l0.098,0.158l0.1,0.159l0.1,0.157l0.101,0.157l0.103,0.157l0.103,0.155l0.104,0.155l0.105,0.154l0.106,0.154l0.106,0.153l0.108,0.152l0.108,0.152l0.11,0.15l0.11,0.151l0.112,0.15l0.112,0.149l0.113,0.148l0.113,0.147l0.115,0.147l0.115,0.146l0.117,0.145l0.117,0.145l0.118,0.144l0.119,0.143l0.12,0.143l0.12,0.141l0.122,0.141l0.123,0.141l0.123,0.14l0.123,0.138l0.125,0.138l0.126,0.138l0.126,0.137l0.127,0.135l0.128,0.135l0.129,0.134l0.129,0.133l0.131,0.133l0.131,0.133l0.132,0.131l0.133,0.13l0.133,0.129l0.134,0.129l0.136,0.129l0.136,0.127l0.136,0.126l0.137,0.125l0.138,0.125l0.139,0.124l0.14,0.123l0.14,0.122l0.141,0.122l0.142,0.12l0.142,0.12l0.143,0.119l0.144,0.118l0.145,0.118l0.145,0.116l0.147,0.115l0.147,0.115l0.147,0.114l0.148,0.113l0.15,0.113l0.148,0.11l0.151,0.111l0.151,0.109l0.151,0.108l0.153,0.108l0.153,0.107l0.153,0.106l0.154,0.105l0.156,0.104l0.155,0.103l0.156,0.102l0.158,0.102l0.157,0.1l0.158,0.1l0.159,0.098l0.159,0.098l0.16,0.096l0.162,0.096l0.161,0.095l0.162,0.094l0.162,0.093l0.163,0.091l0.164,0.091l0.165,0.09l0.165,0.089l0.165,0.088l0.167,0.088l0.166,0.086l0.168,0.085l0.167,0.084l0.169,0.083l0.17,0.083l0.169,0.08l0.17,0.081l0.171,0.079l0.171,0.078l0.171,0.077l0.173,0.076l0.173,0.075l0.174,0.074l0.175,0.074l0.173,0.071l0.176,0.071l0.175,0.07l0.177,0.069l0.177,0.068l0.176,0.067l0.178,0.066l0.178,0.064l0.178,0.064l0.18,0.062l0.18,0.062l0.18,0.06l0.181,0.06l0.181,0.058l0.181,0.057l0.183,0.056l0.183,0.055l0.182,0.054l0.184,0.053l0.184,0.052l0.184,0.05l0.186,0.05l0.185,0.048l0.186,0.047l0.186,0.046l0.187,0.045l0.187,0.044l0.188,0.043l0.187,0.041l0.189,0.041l0.189,0.039l0.189,0.038l0.19,0.037l0.19,0.036l0.192,0.035l0.189,0.034l0.192,0.032l0.192,0.031l0.191,0.03l0.193,0.029l0.193,0.028l0.193,0.026l0.194,0.025l0.194,0.024l0.194,0.023l0.195,0.022l0.196,0.02l0.195,0.02l0.196,0.018l0.196,0.017l0.196,0.015l0.197,0.014l0.198,0.014l0.197,0.012l0.198,0.01l0.199,0.01l0.198,0.008l0.198,0.007l0.2,0.005l0.2,0.005l0.199,0.003l0.2,0.002l0.201,0l0.201,0l0.2,-0.002l0.199,-0.003l0.2,-0.005l0.2,-0.005l0.198,-0.007l0.198,-0.008l0.199,-0.01l0.198,-0.01l0.197,-0.012l0.198,-0.014l0.197,-0.014l0.196,-0.015l0.196,-0.017l0.196,-0.018l0.195,-0.02l0.196,-0.02l0.195,-0.022l0.194,-0.023l0.194,-0.024l0.194,-0.025l0.193,-0.026l0.193,-0.028l0.193,-0.029l0.191,-0.03l0.192,-0.031l0.192,-0.032l0.189,-0.034l0.192,-0.035l0.19,-0.036l0.19,-0.037l0.189,-0.038l0.189,-0.039l0.189,-0.041l0.187,-0.041l0.188,-0.043l0.187,-0.044l0.187,-0.045l0.186,-0.046l0.186,-0.047l0.185,-0.048l0.186,-0.05l0.184,-0.05l0.184,-0.052l0.184,-0.053l0.182,-0.054l0.183,-0.055l0.183,-0.056l0.181,-0.057l0.181,-0.058l0.181,-0.06l0.18,-0.06l0.18,-0.062l0.18,-0.062l0.178,-0.064l0.178,-0.064l0.178,-0.066l0.176,-0.067l0.177,-0.068l0.177,-0.069l0.175,-0.07l0.176,-0.071l0.173,-0.071l0.175,-0.074l0.174,-0.074l0.173,-0.075l0.173,-0.076l0.171,-0.077l0.171,-0.078l0.171,-0.079l0.17,-0.081l0.169,-0.08l0.17,-0.083l0.169,-0.083l0.167,-0.084l0.168,-0.085l0.166,-0.086l0.167,-0.088l0.165,-0.088l0.165,-0.089l0.165,-0.09l0.164,-0.091l0.163,-0.091l0.162,-0.093l0.162,-0.094l0.161,-0.095l0.162,-0.096l0.16,-0.096l0.159,-0.098l0.159,-0.098l0.158,-0.1l0.157,-0.1l0.158,-0.102l0.156,-0.102l0.155,-0.103l0.156,-0.104l0.154,-0.105l0.153,-0.106l0.153,-0.107l0.153,-0.108l0.151,-0.108l0.151,-0.109l0.151,-0.111l0.148,-0.11l0.15,-0.113l0.148,-0.113l0.147,-0.114l0.147,-0.115l0.147,-0.115l0.145,-0.116l0.145,-0.118l0.144,-0.118l0.143,-0.119l0.142,-0.12l0.142,-0.12l0.141,-0.122l0.14,-0.122l0.14,-0.123l0.139,-0.124l0.138,-0.125l0.137,-0.125l0.136,-0.126l0.136,-0.127l0.136,-0.129l0.134,-0.129l0.133,-0.129l0.133,-0.13l0.132,-0.131l0.131,-0.133l0.131,-0.133l0.129,-0.133l0.129,-0.134l0.128,-0.135l0.127,-0.135l0.126,-0.137l0.126,-0.138l0.125,-0.138l0.123,-0.138l0.123,-0.14l0.123,-0.141l0.122,-0.141l0.12,-0.141l0.12,-0.143l0.119,-0.143l0.118,-0.144l0.117,-0.145l0.117,-0.145l0.115,-0.146l0.115,-0.147l0.113,-0.147l0.113,-0.148l0.112,-0.149l0.112,-0.15l0.11,-0.151l0.11,-0.15l0.108,-0.152l0.108,-0.152l0.106,-0.153l0.106,-0.154l0.105,-0.154l0.104,-0.155l0.103,-0.155l0.103,-0.157l0.101,-0.157l0.1,-0.157l0.1,-0.159l0.098,-0.158l0.098,-0.16l0.097,-0.16l0.095,-0.161l0.095,-0.161l0.094,-0.162l0.093,-0.163l0.092,-0.163l0.091,-0.164l0.09,-0.164l0.089,-0.165l0.088,-0.166l0.087,-0.166l0.086,-0.167l0.085,-0.167l0.084,-0.168l0.084,-0.169l0.082,-0.169l0.081,-0.169l0.08,-0.17l0.079,-0.171l0.078,-0.171l0.077,-0.172l0.076,-0.173l0.076,-0.173l0.074,-0.173l0.073,-0.175l0.072,-0.174l0.071,-0.175l0.07,-0.176l0.069,-0.176l0.067,-0.177l0.067,-0.177l0.066,-0.178l0.065,-0.178l0.063,-0.178l0.063,-0.18l0.061,-0.18l0.061,-0.18l0.059,-0.18l0.058,-0.181l0.058,-0.182l0.056,-0.182l0.055,-0.183l0.054,-0.183l0.052,-0.184l0.052,-0.184l0.051,-0.184l0.049,-0.185l0.048,-0.185l0.048,-0.186l0.046,-0.187l0.045,-0.186l0.044,-0.188l0.042,-0.187l0.042,-0.188l0.04,-0.189l0.04,-0.188l0.038,-0.19l0.037,-0.189l0.036,-0.19l0.034,-0.191l0.034,-0.191l0.032,-0.192l0.032,-0.191l0.029,-0.192l0.029,-0.193l0.028,-0.192l0.026,-0.194l0.026,-0.193l0.024,-0.194l0.023,-0.195l0.021,-0.194l0.021,-0.196l0.019,-0.195l0.018,-0.196l0.017,-0.196l0.015,-0.197l0.015,-0.197l0.013,-0.197l0.012,-0.198l0.011,-0.197l0.009,-0.199l0.008,-0.198l0.007,-0.199l0.006,-0.199l0.004,-0.2l0.003,-0.2l0.002,-0.2l0.001,-0.201l-0.001,-0.2l-0.002,-0.2l-0.003,-0.2l-0.004,-0.199l-0.006,-0.2l-0.007,-0.199l-0.008,-0.198l-0.009,-0.199l-0.011,-0.197l-0.012,-0.198l-0.013,-0.197l-0.015,-0.197l-0.015,-0.197l-0.017,-0.196l-0.018,-0.196l-0.019,-0.195l-0.021,-0.195l-0.021,-0.195l-0.023,-0.195l-0.024,-0.193l-0.026,-0.194l-0.026,-0.193l-0.028,-0.193l-0.029,-0.193l-0.03,-0.192l-0.031,-0.192l-0.032,-0.191l-0.034,-0.191l-0.034,-0.191l-0.036,-0.19l-0.037,-0.189l-0.038,-0.189l-0.04,-0.189l-0.04,-0.189l-0.042,-0.188l-0.042,-0.187l-0.044,-0.187l-0.045,-0.187l-0.046,-0.187l-0.048,-0.185l-0.048,-0.186l-0.049,-0.185l-0.051,-0.184l-0.052,-0.184l-0.052,-0.184l-0.054,-0.183l-0.055,-0.182l-0.056,-0.183l-0.058,-0.181l-0.058,-0.181l-0.059,-0.181l-0.061,-0.18l-0.061,-0.18l-0.063,-0.179l-0.063,-0.179l-0.065,-0.178l-0.066,-0.178l-0.067,-0.178l-0.067,-0.176l-0.069,-0.176l-0.07,-0.176l-0.071,-0.175l-0.072,-0.174l-0.073,-0.175l-0.074,-0.173l-0.075,-0.173l-0.077,-0.173l-0.077,-0.171l-0.078,-0.172l-0.079,-0.171l-0.08,-0.17l-0.081,-0.169l-0.082,-0.169l-0.084,-0.169l-0.084,-0.168l-0.085,-0.167l-0.086,-0.167l-0.087,-0.166l-0.088,-0.166l-0.089,-0.165l-0.09,-0.164l-0.091,-0.164l-0.092,-0.163l-0.093,-0.163l-0.094,-0.162l-0.095,-0.161l-0.095,-0.161l-0.097,-0.16l-0.098,-0.16l-0.098,-0.158l-0.1,-0.158l-0.1,-0.158l-0.101,-0.157l-0.102,-0.156l-0.104,-0.155l-0.104,-0.156l-0.105,-0.154l-0.106,-0.154l-0.106,-0.153l-0.108,-0.152l-0.108,-0.151l-0.11,-0.151l-0.11,-0.151l-0.112,-0.149l-0.112,-0.149l-0.113,-0.149l-0.113,-0.147l-0.115,-0.147l-0.115,-0.146l-0.117,-0.145l-0.117,-0.145l-0.118,-0.144l-0.119,-0.143l-0.12,-0.143l-0.121,-0.142l-0.121,-0.141l-0.122,-0.14l-0.123,-0.139l-0.124,-0.139l-0.125,-0.138l-0.126,-0.138l-0.126,-0.136l-0.127,-0.135l-0.128,-0.136l-0.129,-0.134l-0.13,-0.134l-0.13,-0.133l-0.131,-0.131l-0.132,-0.131l-0.133,-0.131l-0.133,-0.129l-0.135,-0.129l-0.135,-0.129l-0.135,-0.126l-0.137,-0.127l-0.137,-0.126l-0.138,-0.124l-0.139,-0.124l-0.14,-0.123l-0.14,-0.122l-0.141,-0.122l-0.142,-0.12l-0.142,-0.12l-0.144,-0.119l-0.143,-0.118l-0.145,-0.117l-0.146,-0.117l-0.146,-0.116l-0.146,-0.114l-0.148,-0.114l-0.148,-0.113l-0.149,-0.112l-0.149,-0.111l-0.151,-0.11l-0.151,-0.11l-0.151,-0.109l-0.153,-0.107l-0.152,-0.107l-0.154,-0.106l-0.155,-0.105l-0.155,-0.104l-0.155,-0.103l-0.156,-0.102l-0.158,-0.102l-0.157,-0.1l-0.158,-0.099l-0.159,-0.099l-0.159,-0.097l-0.16,-0.097l-0.162,-0.096l-0.161,-0.095l-0.162,-0.093l-0.162,-0.093l-0.163,-0.092l-0.164,-0.091l-0.165,-0.09l-0.165,-0.089l-0.165,-0.088l-0.167,-0.087l-0.166,-0.086l-0.168,-0.086l-0.168,-0.084l-0.168,-0.083l-0.169,-0.082l-0.17,-0.081l-0.17,-0.08l-0.171,-0.079l-0.171,-0.079l-0.172,-0.077l-0.172,-0.076l-0.173,-0.075l-0.174,-0.074l-0.174,-0.073l-0.174,-0.072l-0.176,-0.071l-0.176,-0.07l-0.176,-0.069l-0.176,-0.068l-0.177,-0.067l-0.178,-0.066l-0.178,-0.064l-0.179,-0.064l-0.179,-0.062l-0.179,-0.061l-0.181,-0.061l-0.181,-0.059l-0.181,-0.059l-0.181,-0.057l-0.183,-0.056l-0.183,-0.055l-0.183,-0.054l-0.183,-0.053l-0.184,-0.051l-0.184,-0.051l-0.185,-0.049l-0.186,-0.049l-0.186,-0.047l-0.186,-0.046l-0.187,-0.045l-0.187,-0.044l-0.188,-0.043l-0.188,-0.041l-0.188,-0.041l-0.189,-0.039l-0.189,-0.038l-0.19,-0.037l-0.19,-0.036l-0.191,-0.035l-0.19,-0.034l-0.192,-0.032l-0.192,-0.031l-0.191,-0.03l-0.193,-0.029l-0.193,-0.028l-0.193,-0.026l-0.194,-0.025l-0.194,-0.024l-0.194,-0.023l-0.195,-0.022l-0.196,-0.02l-0.195,-0.019l-0.196,-0.018l-0.196,-0.017l-0.196,-0.016l-0.197,-0.014l-0.198,-0.013l-0.197,-0.012l-0.198,-0.011l-0.199,-0.01l-0.198,-0.008l-0.198,-0.007l-0.2,-0.005l-0.2,-0.005l-0.199,-0.003l-0.201,-0.002l-0.2,-0.001l-0.2,0.001Z" style="fill:#fff;fill-opacity:0.5;"/></g></svg>